<svg xmlns="http://www.w3.org/2000/svg" viewBox="0 0 280 280" fill="none" aria-hidden="true"><desc>Decorative orientation-neutral rosette; not a functional compass.</desc>
<defs><radialGradient id="metal"><stop stop-color="#f2dfb4"/><stop offset=".72" stop-color="#c6ad7c"/><stop offset="1" stop-color="#584731"/></radialGradient></defs>
<circle cx="140" cy="140" r="132" stroke="#c6ad7c" stroke-width="3"/><circle cx="140" cy="140" r="122" stroke="#f2dfb4" stroke-width=".8"/><circle cx="140" cy="140" r="106" stroke="#584731" stroke-width="2"/><circle cx="140" cy="140" r="84" stroke="#c6ad7c" stroke-opacity=".7"/>
<path d="M140 12v18" transform="rotate(0 140 140)" stroke="#f2dfb4" stroke-width="2.4"/><path d="M140 20v9" transform="rotate(11.25 140 140)" stroke="#c6ad7c" stroke-width="1"/><path d="M140 20v9" transform="rotate(22.5 140 140)" stroke="#c6ad7c" stroke-width="1"/><path d="M140 20v9" transform="rotate(33.75 140 140)" stroke="#c6ad7c" stroke-width="1"/><path d="M140 12v18" transform="rotate(45 140 140)" stroke="#f2dfb4" stroke-width="2.4"/><path d="M140 20v9" transform="rotate(56.25 140 140)" stroke="#c6ad7c" stroke-width="1"/><path d="M140 20v9" transform="rotate(67.5 140 140)" stroke="#c6ad7c" stroke-width="1"/><path d="M140 20v9" transform="rotate(78.75 140 140)" stroke="#c6ad7c" stroke-width="1"/><path d="M140 12v18" transform="rotate(90 140 140)" stroke="#f2dfb4" stroke-width="2.4"/><path d="M140 20v9" transform="rotate(101.25 140 140)" stroke="#c6ad7c" stroke-width="1"/><path d="M140 20v9" transform="rotate(112.5 140 140)" stroke="#c6ad7c" stroke-width="1"/><path d="M140 20v9" transform="rotate(123.75 140 140)" stroke="#c6ad7c" stroke-width="1"/><path d="M140 12v18" transform="rotate(135 140 140)" stroke="#f2dfb4" stroke-width="2.4"/><path d="M140 20v9" transform="rotate(146.25 140 140)" stroke="#c6ad7c" stroke-width="1"/><path d="M140 20v9" transform="rotate(157.5 140 140)" stroke="#c6ad7c" stroke-width="1"/><path d="M140 20v9" transform="rotate(168.75 140 140)" stroke="#c6ad7c" stroke-width="1"/><path d="M140 12v18" transform="rotate(180 140 140)" stroke="#f2dfb4" stroke-width="2.4"/><path d="M140 20v9" transform="rotate(191.25 140 140)" stroke="#c6ad7c" stroke-width="1"/><path d="M140 20v9" transform="rotate(202.5 140 140)" stroke="#c6ad7c" stroke-width="1"/><path d="M140 20v9" transform="rotate(213.75 140 140)" stroke="#c6ad7c" stroke-width="1"/><path d="M140 12v18" transform="rotate(225 140 140)" stroke="#f2dfb4" stroke-width="2.4"/><path d="M140 20v9" transform="rotate(236.25 140 140)" stroke="#c6ad7c" stroke-width="1"/><path d="M140 20v9" transform="rotate(247.5 140 140)" stroke="#c6ad7c" stroke-width="1"/><path d="M140 20v9" transform="rotate(258.75 140 140)" stroke="#c6ad7c" stroke-width="1"/><path d="M140 12v18" transform="rotate(270 140 140)" stroke="#f2dfb4" stroke-width="2.4"/><path d="M140 20v9" transform="rotate(281.25 140 140)" stroke="#c6ad7c" stroke-width="1"/><path d="M140 20v9" transform="rotate(292.5 140 140)" stroke="#c6ad7c" stroke-width="1"/><path d="M140 20v9" transform="rotate(303.75 140 140)" stroke="#c6ad7c" stroke-width="1"/><path d="M140 12v18" transform="rotate(315 140 140)" stroke="#f2dfb4" stroke-width="2.4"/><path d="M140 20v9" transform="rotate(326.25 140 140)" stroke="#c6ad7c" stroke-width="1"/><path d="M140 20v9" transform="rotate(337.5 140 140)" stroke="#c6ad7c" stroke-width="1"/><path d="M140 20v9" transform="rotate(348.75 140 140)" stroke="#c6ad7c" stroke-width="1"/>
<path d="M140 26L158 122 254 140 158 158 140 254 122 158 26 140 122 122Z" stroke="#f2dfb4" stroke-width="2.4" fill="#584731" fill-opacity=".35"/>
<path d="M140 52L150 130 228 140 150 150 140 228 130 150 52 140 130 130Z" fill="#c6ad7c" fill-opacity=".35"/>
<path d="M140 82L151 129 198 140 151 151 140 198 129 151 82 140 129 129Z" fill="#f2dfb4" fill-opacity=".47"/>
<g stroke="#c6ad7c" stroke-width="1.5"><path d="M61 61L219 219M219 61L61 219"/></g>
<circle cx="140" cy="140" r="15" stroke="#f2dfb4" stroke-width="3" fill="#584731"/><circle cx="140" cy="140" r="6" fill="url(#metal)"/>
</svg>
